# Blender v2.80 (sub 75) OBJ File: ''
# www.blender.org
mtllib Low Poly Torus.mtl
o Torus
v 1.250000 0.000000 0.000000
v 1.125000 0.216506 0.000000
v 0.875000 0.216506 0.000000
v 0.750000 0.000000 0.000000
v 0.875000 -0.216506 0.000000
v 1.125000 -0.216506 0.000000
v 1.207407 0.000000 -0.323524
v 1.086667 0.216506 -0.291171
v 0.845185 0.216506 -0.226467
v 0.724444 0.000000 -0.194114
v 0.845185 -0.216506 -0.226467
v 1.086667 -0.216506 -0.291171
v 1.082532 0.000000 -0.625000
v 0.974279 0.216506 -0.562500
v 0.757772 0.216506 -0.437500
v 0.649519 0.000000 -0.375000
v 0.757772 -0.216506 -0.437500
v 0.974279 -0.216506 -0.562500
v 0.883883 0.000000 -0.883884
v 0.795495 0.216506 -0.795495
v 0.618718 0.216506 -0.618719
v 0.530330 0.000000 -0.530330
v 0.618718 -0.216506 -0.618719
v 0.795495 -0.216506 -0.795495
v 0.625000 0.000000 -1.082532
v 0.562500 0.216506 -0.974279
v 0.437500 0.216506 -0.757772
v 0.375000 0.000000 -0.649519
v 0.437500 -0.216506 -0.757772
v 0.562500 -0.216506 -0.974279
v 0.323524 0.000000 -1.207407
v 0.291171 0.216506 -1.086667
v 0.226467 0.216506 -0.845185
v 0.194114 0.000000 -0.724444
v 0.226467 -0.216506 -0.845185
v 0.291171 -0.216506 -1.086667
v 0.000000 0.000000 -1.250000
v 0.000000 0.216506 -1.125000
v 0.000000 0.216506 -0.875000
v 0.000000 0.000000 -0.750000
v 0.000000 -0.216506 -0.875000
v 0.000000 -0.216506 -1.125000
v -0.323524 0.000000 -1.207407
v -0.291171 0.216506 -1.086667
v -0.226467 0.216506 -0.845185
v -0.194114 0.000000 -0.724444
v -0.226467 -0.216506 -0.845185
v -0.291171 -0.216506 -1.086667
v -0.625000 0.000000 -1.082532
v -0.562500 0.216506 -0.974279
v -0.437500 0.216506 -0.757772
v -0.375000 0.000000 -0.649519
v -0.437500 -0.216506 -0.757772
v -0.562500 -0.216506 -0.974279
v -0.883884 0.000000 -0.883883
v -0.795495 0.216506 -0.795495
v -0.618719 0.216506 -0.618718
v -0.530330 0.000000 -0.530330
v -0.618719 -0.216506 -0.618718
v -0.795495 -0.216506 -0.795495
v -1.082532 0.000000 -0.625000
v -0.974278 0.216506 -0.562500
v -0.757772 0.216506 -0.437500
v -0.649519 0.000000 -0.375000
v -0.757772 -0.216506 -0.437500
v -0.974278 -0.216506 -0.562500
v -1.207407 0.000000 -0.323524
v -1.086667 0.216506 -0.291171
v -0.845185 0.216506 -0.226467
v -0.724444 0.000000 -0.194114
v -0.845185 -0.216506 -0.226467
v -1.086667 -0.216506 -0.291171
v -1.250000 0.000000 -0.000000
v -1.125000 0.216506 -0.000000
v -0.875000 0.216506 -0.000000
v -0.750000 0.000000 -0.000000
v -0.875000 -0.216506 -0.000000
v -1.125000 -0.216506 -0.000000
v -1.207407 0.000000 0.323524
v -1.086667 0.216506 0.291171
v -0.845185 0.216506 0.226467
v -0.724444 0.000000 0.194114
v -0.845185 -0.216506 0.226467
v -1.086667 -0.216506 0.291171
v -1.082532 0.000000 0.625000
v -0.974279 0.216506 0.562500
v -0.757772 0.216506 0.437500
v -0.649519 0.000000 0.375000
v -0.757772 -0.216506 0.437500
v -0.974279 -0.216506 0.562500
v -0.883884 0.000000 0.883883
v -0.795495 0.216506 0.795495
v -0.618719 0.216506 0.618718
v -0.530330 0.000000 0.530330
v -0.618719 -0.216506 0.618718
v -0.795495 -0.216506 0.795495
v -0.625000 0.000000 1.082532
v -0.562500 0.216506 0.974279
v -0.437500 0.216506 0.757772
v -0.375000 0.000000 0.649519
v -0.437500 -0.216506 0.757772
v -0.562500 -0.216506 0.974279
v -0.323524 0.000000 1.207407
v -0.291172 0.216506 1.086666
v -0.226467 0.216506 0.845185
v -0.194115 0.000000 0.724444
v -0.226467 -0.216506 0.845185
v -0.291172 -0.216506 1.086666
v 0.000000 0.000000 1.250000
v 0.000000 0.216506 1.125000
v 0.000000 0.216506 0.875000
v 0.000000 0.000000 0.750000
v 0.000000 -0.216506 0.875000
v 0.000000 -0.216506 1.125000
v 0.323523 0.000000 1.207407
v 0.291171 0.216506 1.086667
v 0.226466 0.216506 0.845185
v 0.194114 0.000000 0.724444
v 0.226466 -0.216506 0.845185
v 0.291171 -0.216506 1.086667
v 0.625000 0.000000 1.082532
v 0.562500 0.216506 0.974279
v 0.437500 0.216506 0.757772
v 0.375000 0.000000 0.649519
v 0.437500 -0.216506 0.757772
v 0.562500 -0.216506 0.974279
v 0.883883 0.000000 0.883884
v 0.795495 0.216506 0.795496
v 0.618718 0.216506 0.618719
v 0.530330 0.000000 0.530330
v 0.618718 -0.216506 0.618719
v 0.795495 -0.216506 0.795496
v 1.082532 0.000000 0.625000
v 0.974279 0.216506 0.562500
v 0.757772 0.216506 0.437500
v 0.649519 0.000000 0.375000
v 0.757772 -0.216506 0.437500
v 0.974279 -0.216506 0.562500
v 1.207407 0.000000 0.323523
v 1.086667 0.216506 0.291171
v 0.845185 0.216506 0.226466
v 0.724444 0.000000 0.194114
v 0.845185 -0.216506 0.226466
v 1.086667 -0.216506 0.291171
vt 0.500000 0.666667
vt 0.500000 0.500000
vt 0.541667 0.500000
vt 0.541667 0.666667
vt 0.500000 0.833333
vt 0.541667 0.833333
vt 0.583333 0.666667
vt 0.583333 0.833333
vt 0.500000 1.000000
vt 0.541667 0.000000
vt 0.458333 0.666667
vt 0.458333 0.500000
vt 0.500000 0.166667
vt 0.541667 0.166667
vt 0.583333 0.166667
vt 0.583333 1.000000
vt 0.625000 0.000000
vt 0.625000 0.166667
vt 0.500000 0.333333
vt 0.541667 0.333333
vt 0.625000 1.000000
vt 0.666667 0.000000
vt 0.666667 0.166667
vt 0.583333 0.500000
vt 0.625000 0.500000
vt 0.625000 0.666667
vt 0.625000 0.833333
vt 0.458333 0.333333
vt 0.583333 0.333333
vt 0.625000 0.333333
vt 0.666667 0.500000
vt 0.666667 0.666667
vt 0.666667 0.833333
vt 0.666667 1.000000
vt 0.708333 0.000000
vt 0.708333 0.166667
vt 0.666667 0.333333
vt 0.708333 0.500000
vt 0.708333 0.666667
vt 0.708333 0.833333
vt 0.708333 1.000000
vt 0.750000 0.000000
vt 0.750000 0.166667
vt 0.708333 0.333333
vt 0.750000 0.500000
vt 0.750000 0.666667
vt 0.750000 0.833333
vt 0.750000 1.000000
vt 0.791667 0.000000
vt 0.791667 0.166667
vt 0.750000 0.333333
vt 0.791667 0.500000
vt 0.791667 0.666667
vt 0.791667 0.833333
vt 0.791667 1.000000
vt 0.833333 0.000000
vt 0.833333 0.166667
vt 0.791667 0.333333
vt 0.833333 0.500000
vt 0.833333 0.666667
vt 0.833333 0.833333
vt 0.833333 1.000000
vt 0.875000 0.000000
vt 0.875000 0.166667
vt 0.833333 0.333333
vt 0.875000 0.500000
vt 0.875000 0.666667
vt 0.875000 0.833333
vt 0.875000 1.000000
vt 0.916667 0.000000
vt 0.916667 0.166667
vt 0.875000 0.333333
vt 0.916667 0.500000
vt 0.916667 0.666667
vt 0.916667 0.833333
vt 0.916667 1.000000
vt 0.958333 0.000000
vt 0.958333 0.166667
vt 0.916667 0.333333
vt 0.958333 0.500000
vt 0.958333 0.666667
vt 0.958333 0.833333
vt 0.958333 1.000000
vt 0.000000 0.000000
vt 1.000000 0.166667
vt 0.958333 0.333333
vt 0.000000 0.500000
vt 1.000000 0.666667
vt 0.000000 0.833333
vt 1.000000 0.000000
vt 0.000000 0.666667
vt 1.000000 0.833333
vt 0.000000 1.000000
vt 0.041667 0.000000
vt 0.041667 0.166667
vt 0.000000 0.166667
vt 1.000000 0.333333
vt 0.000000 0.333333
vt 1.000000 0.500000
vt 0.041667 0.500000
vt 0.041667 0.666667
vt 1.000000 1.000000
vt 0.041667 0.833333
vt 0.041667 1.000000
vt 0.083333 0.000000
vt 0.083333 0.166667
vt 0.041667 0.333333
vt 0.083333 0.500000
vt 0.083333 0.666667
vt 0.083333 0.833333
vt 0.083333 1.000000
vt 0.125000 0.000000
vt 0.125000 0.166667
vt 0.083333 0.333333
vt 0.125000 0.500000
vt 0.125000 0.666667
vt 0.125000 0.833333
vt 0.125000 1.000000
vt 0.166667 0.000000
vt 0.166667 0.166667
vt 0.125000 0.333333
vt 0.166667 0.500000
vt 0.166667 0.666667
vt 0.166667 0.833333
vt 0.166667 1.000000
vt 0.208333 0.000000
vt 0.208333 0.166667
vt 0.166667 0.333333
vt 0.208333 0.500000
vt 0.208333 0.666667
vt 0.208333 0.833333
vt 0.208333 1.000000
vt 0.250000 0.000000
vt 0.250000 0.166667
vt 0.208333 0.333333
vt 0.250000 0.500000
vt 0.250000 0.666667
vt 0.250000 0.833333
vt 0.250000 1.000000
vt 0.291667 0.000000
vt 0.291667 0.166667
vt 0.250000 0.333333
vt 0.291667 0.500000
vt 0.291667 0.666667
vt 0.291667 0.833333
vt 0.291667 1.000000
vt 0.333333 0.000000
vt 0.333333 0.166667
vt 0.291667 0.333333
vt 0.333333 0.500000
vt 0.333333 0.666667
vt 0.333333 0.833333
vt 0.333333 1.000000
vt 0.375000 0.000000
vt 0.375000 0.166667
vt 0.333333 0.333333
vt 0.375000 0.500000
vt 0.375000 0.666667
vt 0.375000 0.833333
vt 0.375000 1.000000
vt 0.416667 0.000000
vt 0.416667 0.166667
vt 0.375000 0.333333
vt 0.416667 0.500000
vt 0.416667 0.666667
vt 0.416667 0.833333
vt 0.416667 1.000000
vt 0.458333 0.000000
vt 0.458333 0.166667
vt 0.416667 0.333333
vt 0.458333 0.833333
vt 0.500000 0.000000
vt 0.458333 1.000000
vt 0.541667 1.000000
vt 0.583333 0.000000
vn 0.8605 0.4968 -0.1133
vn 0.0000 1.0000 0.0000
vn -0.8605 0.4968 0.1133
vn 0.8605 0.4968 0.1133
vn -0.8605 -0.4968 0.1133
vn -0.6885 -0.4968 0.5283
vn 0.0000 -1.0000 0.0000
vn 0.8605 -0.4968 -0.1133
vn -0.5283 -0.4968 0.6885
vn 0.6885 0.4968 -0.5283
vn -0.6885 0.4968 0.5283
vn 0.8605 -0.4968 0.1133
vn 0.6885 -0.4968 -0.5283
vn 0.5283 0.4968 -0.6885
vn -0.5283 0.4968 0.6885
vn -0.3321 -0.4968 0.8018
vn 0.5283 -0.4968 -0.6885
vn 0.3321 0.4968 -0.8018
vn -0.3321 0.4968 0.8018
vn -0.1133 -0.4968 0.8605
vn 0.3321 -0.4968 -0.8018
vn 0.1133 0.4968 -0.8605
vn -0.1133 0.4968 0.8605
vn 0.1133 -0.4968 0.8605
vn 0.1133 -0.4968 -0.8605
vn -0.1133 0.4968 -0.8605
vn 0.1133 0.4968 0.8605
vn 0.3321 -0.4968 0.8018
vn -0.1133 -0.4968 -0.8605
vn -0.3321 0.4968 -0.8018
vn 0.3321 0.4968 0.8018
vn 0.5283 -0.4968 0.6885
vn -0.3321 -0.4968 -0.8018
vn -0.5283 0.4968 -0.6885
vn 0.5283 0.4968 0.6885
vn 0.6885 -0.4968 0.5283
vn -0.5283 -0.4968 -0.6885
vn -0.6885 0.4968 -0.5283
vn 0.6885 0.4968 0.5283
vn 0.8018 -0.4968 0.3321
vn -0.6885 -0.4968 -0.5283
vn -0.8018 0.4968 -0.3321
vn 0.8018 0.4968 0.3321
vn -0.8018 -0.4968 -0.3321
vn -0.8605 0.4968 -0.1133
vn -0.8605 -0.4968 -0.1133
vn 0.8018 -0.4968 -0.3321
vn -0.8018 0.4968 0.3321
vn 0.8018 0.4968 -0.3321
vn -0.8018 -0.4968 0.3321
usemtl None
s off
f 2/1/1 1/2/1 7/3/1 8/4/1
f 3/5/2 2/1/2 8/4/2 9/6/2
f 9/6/2 8/4/2 14/7/2 15/8/2
f 4/9/3 3/5/3 9/6/3 10/10/3
f 140/11/4 139/12/4 1/2/4 2/1/4
f 5/13/5 4/9/5 10/10/5 11/14/5
f 17/15/6 16/16/6 22/17/6 23/18/6
f 6/19/7 5/13/7 11/14/7 12/20/7
f 1/2/8 6/19/8 12/20/8 7/3/8
f 23/18/9 22/21/9 28/22/9 29/23/9
f 14/7/10 13/24/10 19/25/10 20/26/10
f 16/16/11 15/8/11 21/27/11 22/17/11
f 15/8/2 14/7/2 20/26/2 21/27/2
f 144/28/12 6/19/12 1/2/12 139/12/12
f 18/29/7 17/15/7 23/18/7 24/30/7
f 13/24/13 18/29/13 24/30/13 19/25/13
f 20/26/14 19/25/14 25/31/14 26/32/14
f 22/21/15 21/27/15 27/33/15 28/22/15
f 21/27/2 20/26/2 26/32/2 27/33/2
f 29/23/16 28/34/16 34/35/16 35/36/16
f 24/30/7 23/18/7 29/23/7 30/37/7
f 19/25/17 24/30/17 30/37/17 25/31/17
f 26/32/18 25/31/18 31/38/18 32/39/18
f 28/34/19 27/33/19 33/40/19 34/35/19
f 27/33/2 26/32/2 32/39/2 33/40/2
f 35/36/20 34/41/20 40/42/20 41/43/20
f 30/37/7 29/23/7 35/36/7 36/44/7
f 25/31/21 30/37/21 36/44/21 31/38/21
f 32/39/22 31/38/22 37/45/22 38/46/22
f 34/41/23 33/40/23 39/47/23 40/42/23
f 33/40/2 32/39/2 38/46/2 39/47/2
f 41/43/24 40/48/24 46/49/24 47/50/24
f 36/44/7 35/36/7 41/43/7 42/51/7
f 31/38/25 36/44/25 42/51/25 37/45/25
f 38/46/26 37/45/26 43/52/26 44/53/26
f 40/48/27 39/47/27 45/54/27 46/49/27
f 39/47/2 38/46/2 44/53/2 45/54/2
f 47/50/28 46/55/28 52/56/28 53/57/28
f 42/51/7 41/43/7 47/50/7 48/58/7
f 37/45/29 42/51/29 48/58/29 43/52/29
f 44/53/30 43/52/30 49/59/30 50/60/30
f 46/55/31 45/54/31 51/61/31 52/56/31
f 45/54/2 44/53/2 50/60/2 51/61/2
f 53/57/32 52/62/32 58/63/32 59/64/32
f 48/58/7 47/50/7 53/57/7 54/65/7
f 43/52/33 48/58/33 54/65/33 49/59/33
f 50/60/34 49/59/34 55/66/34 56/67/34
f 52/62/35 51/61/35 57/68/35 58/63/35
f 51/61/2 50/60/2 56/67/2 57/68/2
f 59/64/36 58/69/36 64/70/36 65/71/36
f 54/65/7 53/57/7 59/64/7 60/72/7
f 49/59/37 54/65/37 60/72/37 55/66/37
f 56/67/38 55/66/38 61/73/38 62/74/38
f 58/69/39 57/68/39 63/75/39 64/70/39
f 57/68/2 56/67/2 62/74/2 63/75/2
f 65/71/40 64/76/40 70/77/40 71/78/40
f 60/72/7 59/64/7 65/71/7 66/79/7
f 55/66/41 60/72/41 66/79/41 61/73/41
f 62/74/42 61/73/42 67/80/42 68/81/42
f 64/76/43 63/75/43 69/82/43 70/77/43
f 63/75/2 62/74/2 68/81/2 69/82/2
f 71/78/12 70/83/12 76/84/12 77/85/12
f 66/79/7 65/71/7 71/78/7 72/86/7
f 61/73/44 66/79/44 72/86/44 67/80/44
f 68/81/45 67/80/45 73/87/45 74/88/45
f 70/83/4 69/82/4 75/89/4 76/90/4
f 69/82/2 68/81/2 74/91/2 75/92/2
f 77/85/8 76/93/8 82/94/8 83/95/8
f 72/86/7 71/78/7 77/96/7 78/97/7
f 67/80/46 72/86/46 78/98/46 73/99/46
f 74/88/3 73/87/3 79/100/3 80/101/3
f 76/102/1 75/89/1 81/103/1 82/94/1
f 75/92/2 74/91/2 80/101/2 81/103/2
f 83/95/47 82/104/47 88/105/47 89/106/47
f 78/97/7 77/96/7 83/95/7 84/107/7
f 73/99/5 78/98/5 84/107/5 79/100/5
f 80/101/48 79/100/48 85/108/48 86/109/48
f 82/104/49 81/103/49 87/110/49 88/105/49
f 81/103/2 80/101/2 86/109/2 87/110/2
f 89/106/13 88/111/13 94/112/13 95/113/13
f 84/107/7 83/95/7 89/106/7 90/114/7
f 79/100/50 84/107/50 90/114/50 85/108/50
f 86/109/11 85/108/11 91/115/11 92/116/11
f 88/111/10 87/110/10 93/117/10 94/112/10
f 87/110/2 86/109/2 92/116/2 93/117/2
f 95/113/17 94/118/17 100/119/17 101/120/17
f 90/114/7 89/106/7 95/113/7 96/121/7
f 85/108/6 90/114/6 96/121/6 91/115/6
f 92/116/15 91/115/15 97/122/15 98/123/15
f 94/118/14 93/117/14 99/124/14 100/119/14
f 93/117/2 92/116/2 98/123/2 99/124/2
f 101/120/21 100/125/21 106/126/21 107/127/21
f 96/121/7 95/113/7 101/120/7 102/128/7
f 91/115/9 96/121/9 102/128/9 97/122/9
f 98/123/19 97/122/19 103/129/19 104/130/19
f 100/125/18 99/124/18 105/131/18 106/126/18
f 99/124/2 98/123/2 104/130/2 105/131/2
f 107/127/25 106/132/25 112/133/25 113/134/25
f 102/128/7 101/120/7 107/127/7 108/135/7
f 97/122/16 102/128/16 108/135/16 103/129/16
f 104/130/23 103/129/23 109/136/23 110/137/23
f 106/132/22 105/131/22 111/138/22 112/133/22
f 105/131/2 104/130/2 110/137/2 111/138/2
f 113/134/29 112/139/29 118/140/29 119/141/29
f 108/135/7 107/127/7 113/134/7 114/142/7
f 103/129/20 108/135/20 114/142/20 109/136/20
f 110/137/27 109/136/27 115/143/27 116/144/27
f 112/139/26 111/138/26 117/145/26 118/140/26
f 111/138/2 110/137/2 116/144/2 117/145/2
f 119/141/33 118/146/33 124/147/33 125/148/33
f 114/142/7 113/134/7 119/141/7 120/149/7
f 109/136/24 114/142/24 120/149/24 115/143/24
f 116/144/31 115/143/31 121/150/31 122/151/31
f 118/146/30 117/145/30 123/152/30 124/147/30
f 117/145/2 116/144/2 122/151/2 123/152/2
f 125/148/37 124/153/37 130/154/37 131/155/37
f 120/149/7 119/141/7 125/148/7 126/156/7
f 115/143/28 120/149/28 126/156/28 121/150/28
f 122/151/35 121/150/35 127/157/35 128/158/35
f 124/153/34 123/152/34 129/159/34 130/154/34
f 123/152/2 122/151/2 128/158/2 129/159/2
f 131/155/41 130/160/41 136/161/41 137/162/41
f 126/156/7 125/148/7 131/155/7 132/163/7
f 121/150/32 126/156/32 132/163/32 127/157/32
f 128/158/39 127/157/39 133/164/39 134/165/39
f 130/160/38 129/159/38 135/166/38 136/161/38
f 129/159/2 128/158/2 134/165/2 135/166/2
f 137/162/44 136/167/44 142/168/44 143/169/44
f 132/163/7 131/155/7 137/162/7 138/170/7
f 127/157/36 132/163/36 138/170/36 133/164/36
f 134/165/43 133/164/43 139/12/43 140/11/43
f 136/167/42 135/166/42 141/171/42 142/168/42
f 135/166/2 134/165/2 140/11/2 141/171/2
f 138/170/7 137/162/7 143/169/7 144/28/7
f 133/164/40 138/170/40 144/28/40 139/12/40
f 141/171/45 3/5/45 4/172/45 142/173/45
f 11/14/50 10/174/50 16/175/50 17/15/50
f 12/20/7 11/14/7 17/15/7 18/29/7
f 7/3/47 12/20/47 18/29/47 13/24/47
f 8/4/49 7/3/49 13/24/49 14/7/49
f 143/169/7 5/13/7 6/19/7 144/28/7
f 140/11/2 2/1/2 3/5/2 141/171/2
f 10/174/48 9/6/48 15/8/48 16/175/48
f 142/173/46 4/172/46 5/13/46 143/169/46
